<?xml version="1.0" standalone="no"?>
<!DOCTYPE svg PUBLIC "-//W3C//DTD SVG 20010904//EN"
 "http://www.w3.org/TR/2001/REC-SVG-20010904/DTD/svg10.dtd">
<svg version="1.0" xmlns="http://www.w3.org/2000/svg"
 width="38.000000pt" height="38.000000pt" viewBox="0 0 38.000000 38.000000"
 preserveAspectRatio="xMidYMid meet">

<g transform="translate(0.000000,38.000000) scale(0.100000,-0.100000)"
fill="#000000" stroke="none">
<path d="M200 370 c-41 -4 -59 -7 -40 -8 19 -1 45 -5 58 -8 18 -5 20 -9 10
-21 -9 -12 -7 -14 13 -12 13 1 37 1 52 1 26 -2 28 -5 25 -34 -2 -28 -8 -34
-30 -36 -22 -3 -28 -9 -28 -28 0 -20 5 -24 31 -24 28 0 30 -2 27 -32 -2 -28
-8 -34 -30 -36 -27 -3 -28 -5 -28 -68 l0 -64 40 0 c27 0 47 7 60 20 18 18 20
33 20 168 0 142 -1 149 -23 170 -24 23 -26 23 -157 12z"/>
<path d="M172 255 c0 -16 2 -22 5 -12 2 9 2 23 0 30 -3 6 -5 -1 -5 -18z"/>
<path d="M10 202 c0 -16 -3 -56 -6 -90 -6 -56 -5 -62 19 -86 23 -23 34 -26 92
-26 l65 0 0 65 c0 58 -2 65 -20 65 -16 0 -20 7 -20 35 0 28 4 35 20 35 11 0
20 4 20 8 0 5 -26 8 -57 8 -32 -1 -70 2 -85 7 -26 7 -28 5 -28 -21z"/>
</g>
</svg>
