<?xml version="1.0" standalone="no"?>
<!DOCTYPE svg PUBLIC "-//W3C//DTD SVG 20010904//EN"
 "http://www.w3.org/TR/2001/REC-SVG-20010904/DTD/svg10.dtd">
<svg version="1.0" xmlns="http://www.w3.org/2000/svg"
 width="40.000000pt" height="40.000000pt" viewBox="0 0 40.000000 40.000000"
 preserveAspectRatio="xMidYMid meet">

<g transform="translate(0.000000,40.000000) scale(0.100000,-0.100000)"
fill="#000000" stroke="none">
<path d="M72 380 c-18 -11 -40 -36 -48 -55 -18 -45 -19 -115 0 -115 9 0 15 17
18 56 8 89 23 99 164 99 115 0 116 0 141 -29 24 -28 25 -34 21 -143 -4 -133
-11 -146 -98 -158 -68 -9 -73 -25 -8 -25 107 0 138 42 138 188 0 168 -33 202
-195 202 -83 0 -106 -4 -133 -20z"/>
<path d="M295 321 c-8 -15 3 -31 21 -31 9 0 14 7 12 17 -4 20 -24 28 -33 14z"/>
<path d="M165 288 c-28 -15 -45 -38 -45 -61 0 -16 5 -14 29 12 42 45 101 38
121 -15 12 -31 -10 -79 -40 -89 -26 -8 -26 -25 0 -25 36 0 70 44 70 90 0 74
-73 122 -135 88z"/>
</g>
</svg>
