<?xml version="1.0" standalone="no"?>
<!DOCTYPE svg PUBLIC "-//W3C//DTD SVG 20010904//EN"
 "http://www.w3.org/TR/2001/REC-SVG-20010904/DTD/svg10.dtd">
<svg version="1.0" xmlns="http://www.w3.org/2000/svg"
 width="36.000000pt" height="41.000000pt" viewBox="0 0 36.000000 41.000000"
 preserveAspectRatio="xMidYMid meet">

<g transform="translate(0.000000,41.000000) scale(0.100000,-0.100000)"
fill="#000000" stroke="none">
<path d="M200 242 c0 -122 -2 -141 -18 -155 -25 -23 -55 -21 -77 3 -25 28 -13
69 25 83 23 9 30 18 30 39 0 25 -4 28 -31 28 -22 0 -41 -10 -65 -34 -29 -29
-34 -41 -34 -79 0 -50 24 -88 72 -113 44 -23 90 -11 127 32 29 33 31 39 31
120 0 78 2 85 18 79 9 -4 29 -10 45 -13 24 -4 27 -1 27 24 0 23 -7 32 -33 44
-18 8 -39 29 -47 47 -12 25 -21 33 -42 33 l-28 0 0 -138z"/>
</g>
</svg>
