<?xml version="1.0" standalone="no"?>
<!DOCTYPE svg PUBLIC "-//W3C//DTD SVG 20010904//EN"
 "http://www.w3.org/TR/2001/REC-SVG-20010904/DTD/svg10.dtd">
<svg version="1.0" xmlns="http://www.w3.org/2000/svg"
 width="50.000000pt" height="29.000000pt" viewBox="0 0 50.000000 29.000000"
 preserveAspectRatio="xMidYMid meet">

<g transform="translate(0.000000,29.000000) scale(0.100000,-0.100000)"
fill="#000000" stroke="none">
<path d="M186 281 c-4 -5 -2 -12 4 -16 5 -3 10 -31 10 -61 0 -42 -3 -54 -15
-54 -16 0 -75 84 -75 106 0 23 -82 35 -95 14 -11 -18 75 -167 120 -209 44 -41
111 -68 139 -58 9 4 16 18 16 32 0 41 27 42 69 1 30 -29 44 -36 76 -36 71 0
74 12 21 75 l-48 56 38 57 c22 31 44 60 49 65 17 12 -17 27 -62 27 -40 0 -42
-1 -75 -62 -49 -88 -66 -88 -70 -1 l-3 68 -47 3 c-25 2 -49 -1 -52 -7z"/>
</g>
</svg>
