<?xml version="1.0" standalone="no"?>
<!DOCTYPE svg PUBLIC "-//W3C//DTD SVG 20010904//EN"
 "http://www.w3.org/TR/2001/REC-SVG-20010904/DTD/svg10.dtd">
<svg version="1.0" xmlns="http://www.w3.org/2000/svg"
 width="39.000000pt" height="38.000000pt" viewBox="0 0 39.000000 38.000000"
 preserveAspectRatio="xMidYMid meet">

<g transform="translate(0.000000,38.000000) scale(0.100000,-0.100000)"
fill="#000000" stroke="none">
<path d="M51 366 c-42 -23 -50 -53 -51 -173 0 -181 13 -193 205 -193 126 0
127 0 156 29 l29 29 0 132 0 132 -29 29 -29 29 -129 0 c-87 -1 -136 -5 -152
-14z m80 -34 c0 -12 3 -10 10 6 5 13 13 20 19 17 6 -4 8 -11 4 -16 -3 -6 -9
-30 -12 -55 -9 -57 -25 -58 -33 -2 -3 24 -7 48 -9 53 -4 18 0 26 10 20 6 -3
10 -14 11 -23z m78 -16 c7 -8 11 -30 9 -48 -2 -25 -8 -33 -23 -33 -15 0 -21 8
-23 33 -6 57 12 79 37 48z m71 -37 c0 -47 -2 -50 -22 -47 -19 2 -24 10 -26 46
-2 25 1 42 7 42 6 0 12 -17 12 -37 2 -34 2 -35 6 -8 9 71 23 74 23 4z m42 -77
c19 -19 18 -150 -2 -162 -23 -14 -233 -13 -248 2 -7 7 -12 42 -12 85 0 67 2
75 23 83 33 14 223 8 239 -8z"/>
<path d="M192 280 c0 -19 2 -27 5 -17 2 9 2 25 0 35 -3 9 -5 1 -5 -18z"/>
<path d="M84 178 c-3 -4 0 -8 5 -8 6 0 11 -21 11 -50 0 -27 5 -50 10 -50 6 0
10 23 10 50 0 31 4 50 12 50 6 0 8 3 4 7 -10 10 -46 11 -52 1z"/>
<path d="M200 126 c0 -45 3 -55 19 -59 27 -7 31 0 31 45 0 27 -4 38 -15 38 -8
0 -15 7 -15 15 0 8 -4 15 -10 15 -5 0 -10 -24 -10 -54z m40 -22 c0 -13 -4 -24
-10 -24 -5 0 -10 14 -10 31 0 17 4 28 10 24 6 -3 10 -17 10 -31z"/>
<path d="M141 113 c-1 -40 1 -43 24 -43 23 0 25 4 25 40 0 22 -4 40 -10 40 -5
0 -10 -17 -10 -37 0 -43 -16 -34 -23 12 -3 24 -4 21 -6 -12z"/>
<path d="M272 108 c2 -29 8 -43 17 -43 8 0 16 6 19 13 2 7 -2 10 -12 6 -9 -3
-16 -1 -16 5 0 7 7 14 15 17 23 9 19 44 -6 44 -18 0 -20 -5 -17 -42z m28 22
c0 -5 -4 -10 -10 -10 -5 0 -10 5 -10 10 0 6 5 10 10 10 6 0 10 -4 10 -10z"/>
</g>
</svg>
